<svg viewBox="0 0 64 64" xmlns="http://www.w3.org/2000/svg"> <defs> <radialGradient id="signalGrad" cx="50%" cy="50%"> <stop offset="0%" stop-color="#00C8FF" stop-opacity="0.8"/> <stop offset="100%" stop-color="#00C8FF" stop-opacity="0.1"/> </radialGradient> <filter id="glow"> <feGaussianBlur stdDeviation="1" result="coloredBlur"/> <feMerge> <feMergeNode in="coloredBlur"/> <feMergeNode in="SourceGraphic"/> </feMerge> </filter> </defs> <!-- Background --> <rect width="64" height="64" fill="#0A1224"/> <!-- Narrower perspective grid with proper intersections --> <g stroke="#00C8FF" stroke-width="1" stroke-linecap="round"> <!-- Horizontal lines (calculated to match vertical line intersections) --> <line x1="6" y1="58" x2="58" y2="58" opacity="0.5"/> <line x1="8.29" y1="54" x2="55.71" y2="54" opacity="0.45"/> <line x1="10.57" y1="50" x2="53.43" y2="50" opacity="0.4"/> <line x1="12.86" y1="46" x2="51.14" y2="46" opacity="0.35"/> <line x1="15.14" y1="42" x2="48.86" y2="42" opacity="0.3"/> <line x1="17.43" y1="38" x2="46.57" y2="38" opacity="0.25"/> <line x1="19.71" y1="34" x2="44.29" y2="34" opacity="0.2"/> <line x1="22" y1="30" x2="42" y2="30" opacity="0.15"/>

<!-- Vertical lines (proper perspective) --> <line x1="22" y1="30" x2="6" y2="58" opacity="0.3"/> <line x1="27" y1="30" x2="16" y2="58" opacity="0.35"/> <line x1="32" y1="30" x2="32" y2="58" opacity="0.4"/> <line x1="37" y1="30" x2="48" y2="58" opacity="0.35"/> <line x1="42" y1="30" x2="58" y2="58" opacity="0.3"/> </g> <!-- Broadcast arcs --> <g fill="none" stroke="url(#signalGrad)" stroke-linecap="round"> <path d="M 8 30 A 24 24 0 0 1 56 30" stroke-width="1.8" opacity="0.35"/> <path d="M 14 27 A 18 18 0 0 1 50 27" stroke-width="2" opacity="0.5"/> <path d="M 20 24 A 12 12 0 0 1 44 24" stroke-width="2.2" opacity="0.7"/> </g> <!-- Aircraft --> <g filter="url(#glow)"> <ellipse cx="32" cy="17.5" rx="1.5" ry="7" fill="#FFFFFF" opacity="0.95"/> <ellipse cx="32" cy="18" rx="12" ry="2.2" fill="#FFFFFF" opacity="0.95"/> <ellipse cx="32" cy="23.5" rx="5" ry="1.2" fill="#FFFFFF" opacity="0.95"/> <g fill="#E0E0E0" opacity="0.75"> <path d="M 31.8 11.5 L 28 11.7 L 28.2 12 L 31.8 11.8 Z"/> <path d="M 32.2 11.5 L 36 11.7 L 35.8 12 L 32.2 11.8 Z"/> </g> </g> </svg>
